<svg width="88" height="20" viewBox="0 0 88 20" fill="none" xmlns="http://www.w3.org/2000/svg">
<g clip-path="url(#clip0_205_9)">
<path d="M35 0H0V20H35V0Z" fill="#555555"/>
<path d="M88 0H35V20H88V0Z" fill="#478B43"/>
<path d="M88 0H0V20H88V0Z" fill="url(#paint0_linear_205_9)"/>
<path d="M10.9858 15H9.97607V11.584C9.97607 11.3083 9.95996 11.0505 9.92773 10.8105C9.89551 10.5671 9.83643 10.3773 9.75049 10.2412C9.66097 10.0908 9.53206 9.97982 9.36377 9.9082C9.19548 9.83301 8.97705 9.79541 8.7085 9.79541C8.43278 9.79541 8.14453 9.86344 7.84375 9.99951C7.54297 10.1356 7.25472 10.3092 6.979 10.5205V15H5.96924V9.00049H6.979V9.6665C7.29411 9.40511 7.61995 9.20101 7.95654 9.0542C8.29313 8.90739 8.63867 8.83398 8.99316 8.83398C9.64128 8.83398 10.1354 9.02913 10.4756 9.41943C10.8158 9.80973 10.9858 10.3719 10.9858 11.106V15ZM18.0435 12.0029C18.0435 12.9805 17.7928 13.7521 17.2915 14.3179C16.7902 14.8836 16.1188 15.1665 15.2773 15.1665C14.4287 15.1665 13.7537 14.8836 13.2524 14.3179C12.7547 13.7521 12.5059 12.9805 12.5059 12.0029C12.5059 11.0254 12.7547 10.2537 13.2524 9.68799C13.7537 9.11865 14.4287 8.83398 15.2773 8.83398C16.1188 8.83398 16.7902 9.11865 17.2915 9.68799C17.7928 10.2537 18.0435 11.0254 18.0435 12.0029ZM17.0015 12.0029C17.0015 11.2259 16.8493 10.6494 16.5449 10.2734C16.2406 9.89388 15.818 9.7041 15.2773 9.7041C14.7295 9.7041 14.3034 9.89388 13.999 10.2734C13.6982 10.6494 13.5479 11.2259 13.5479 12.0029C13.5479 12.7549 13.7 13.326 14.0044 13.7163C14.3088 14.103 14.7331 14.2964 15.2773 14.2964C15.8145 14.2964 16.2352 14.1048 16.5396 13.7217C16.8475 13.335 17.0015 12.762 17.0015 12.0029ZM24.478 15H23.4683V14.3716C23.1782 14.6222 22.8757 14.8174 22.5605 14.957C22.2454 15.0967 21.9035 15.1665 21.5347 15.1665C20.8185 15.1665 20.2492 14.8908 19.8267 14.3394C19.4077 13.7879 19.1982 13.0234 19.1982 12.0459C19.1982 11.5374 19.2699 11.0845 19.4131 10.687C19.5599 10.2896 19.7568 9.95117 20.0039 9.67188C20.2474 9.39974 20.5303 9.19206 20.8525 9.04883C21.1784 8.9056 21.515 8.83398 21.8623 8.83398C22.1774 8.83398 22.4567 8.868 22.7002 8.93604C22.9437 9.00049 23.1997 9.10254 23.4683 9.24219V6.64258H24.478V15ZM23.4683 13.5229V10.0801C23.1961 9.95833 22.9526 9.87419 22.7378 9.82764C22.5229 9.78109 22.2884 9.75781 22.0342 9.75781C21.4684 9.75781 21.028 9.95475 20.7129 10.3486C20.3978 10.7425 20.2402 11.3011 20.2402 12.0244C20.2402 12.737 20.362 13.2795 20.6055 13.6519C20.849 14.0207 21.2393 14.2051 21.7764 14.2051C22.0628 14.2051 22.3529 14.1424 22.6465 14.0171C22.9401 13.8882 23.214 13.7235 23.4683 13.5229ZM31.4873 12.105H27.0669C27.0669 12.4738 27.1224 12.7961 27.2334 13.0718C27.3444 13.3439 27.4966 13.5677 27.6899 13.7432C27.8761 13.915 28.0964 14.0439 28.3506 14.1299C28.6084 14.2158 28.8913 14.2588 29.1992 14.2588C29.6074 14.2588 30.0174 14.1782 30.4292 14.0171C30.8446 13.8524 31.14 13.6912 31.3154 13.5337H31.3691V14.6348C31.029 14.778 30.6816 14.8979 30.3271 14.9946C29.9727 15.0913 29.6003 15.1396 29.21 15.1396C28.2145 15.1396 27.4375 14.8711 26.8789 14.334C26.3203 13.7933 26.041 13.027 26.041 12.0352C26.041 11.054 26.3078 10.2752 26.8413 9.69873C27.3784 9.12223 28.0838 8.83398 28.9575 8.83398C29.7668 8.83398 30.3898 9.07031 30.8267 9.54297C31.2671 10.0156 31.4873 10.687 31.4873 11.5571V12.105ZM30.5044 11.3315C30.5008 10.8016 30.3665 10.3916 30.1016 10.1016C29.8402 9.81152 29.4409 9.6665 28.9038 9.6665C28.3631 9.6665 27.9316 9.82585 27.6094 10.1445C27.2907 10.4632 27.1099 10.8589 27.0669 11.3315H30.5044Z" fill="#010101" fill-opacity="0.3"/>
<path d="M10.9858 14H9.97607V10.584C9.97607 10.3083 9.95996 10.0505 9.92773 9.81055C9.89551 9.56706 9.83643 9.37728 9.75049 9.24121C9.66097 9.09082 9.53206 8.97982 9.36377 8.9082C9.19548 8.83301 8.97705 8.79541 8.7085 8.79541C8.43278 8.79541 8.14453 8.86344 7.84375 8.99951C7.54297 9.13558 7.25472 9.30924 6.979 9.52051V14H5.96924V8.00049H6.979V8.6665C7.29411 8.40511 7.61995 8.20101 7.95654 8.0542C8.29313 7.90739 8.63867 7.83398 8.99316 7.83398C9.64128 7.83398 10.1354 8.02913 10.4756 8.41943C10.8158 8.80973 10.9858 9.37191 10.9858 10.106V14ZM18.0435 11.0029C18.0435 11.9805 17.7928 12.7521 17.2915 13.3179C16.7902 13.8836 16.1188 14.1665 15.2773 14.1665C14.4287 14.1665 13.7537 13.8836 13.2524 13.3179C12.7547 12.7521 12.5059 11.9805 12.5059 11.0029C12.5059 10.0254 12.7547 9.25374 13.2524 8.68799C13.7537 8.11865 14.4287 7.83398 15.2773 7.83398C16.1188 7.83398 16.7902 8.11865 17.2915 8.68799C17.7928 9.25374 18.0435 10.0254 18.0435 11.0029ZM17.0015 11.0029C17.0015 10.2259 16.8493 9.64941 16.5449 9.27344C16.2406 8.89388 15.818 8.7041 15.2773 8.7041C14.7295 8.7041 14.3034 8.89388 13.999 9.27344C13.6982 9.64941 13.5479 10.2259 13.5479 11.0029C13.5479 11.7549 13.7 12.326 14.0044 12.7163C14.3088 13.103 14.7331 13.2964 15.2773 13.2964C15.8145 13.2964 16.2352 13.1048 16.5396 12.7217C16.8475 12.335 17.0015 11.762 17.0015 11.0029ZM24.478 14H23.4683V13.3716C23.1782 13.6222 22.8757 13.8174 22.5605 13.957C22.2454 14.0967 21.9035 14.1665 21.5347 14.1665C20.8185 14.1665 20.2492 13.8908 19.8267 13.3394C19.4077 12.7879 19.1982 12.0234 19.1982 11.0459C19.1982 10.5374 19.2699 10.0845 19.4131 9.68701C19.5599 9.28955 19.7568 8.95117 20.0039 8.67188C20.2474 8.39974 20.5303 8.19206 20.8525 8.04883C21.1784 7.9056 21.515 7.83398 21.8623 7.83398C22.1774 7.83398 22.4567 7.868 22.7002 7.93604C22.9437 8.00049 23.1997 8.10254 23.4683 8.24219V5.64258H24.478V14ZM23.4683 12.5229V9.08008C23.1961 8.95833 22.9526 8.87419 22.7378 8.82764C22.5229 8.78109 22.2884 8.75781 22.0342 8.75781C21.4684 8.75781 21.028 8.95475 20.7129 9.34863C20.3978 9.74251 20.2402 10.3011 20.2402 11.0244C20.2402 11.737 20.362 12.2795 20.6055 12.6519C20.849 13.0207 21.2393 13.2051 21.7764 13.2051C22.0628 13.2051 22.3529 13.1424 22.6465 13.0171C22.9401 12.8882 23.214 12.7235 23.4683 12.5229ZM31.4873 11.105H27.0669C27.0669 11.4738 27.1224 11.7961 27.2334 12.0718C27.3444 12.3439 27.4966 12.5677 27.6899 12.7432C27.8761 12.915 28.0964 13.0439 28.3506 13.1299C28.6084 13.2158 28.8913 13.2588 29.1992 13.2588C29.6074 13.2588 30.0174 13.1782 30.4292 13.0171C30.8446 12.8524 31.14 12.6912 31.3154 12.5337H31.3691V13.6348C31.029 13.778 30.6816 13.8979 30.3271 13.9946C29.9727 14.0913 29.6003 14.1396 29.21 14.1396C28.2145 14.1396 27.4375 13.8711 26.8789 13.334C26.3203 12.7933 26.041 12.027 26.041 11.0352C26.041 10.054 26.3078 9.27523 26.8413 8.69873C27.3784 8.12223 28.0838 7.83398 28.9575 7.83398C29.7668 7.83398 30.3898 8.07031 30.8267 8.54297C31.2671 9.01562 31.4873 9.68701 31.4873 10.5571V11.105ZM30.5044 10.3315C30.5008 9.8016 30.3665 9.3916 30.1016 9.10156C29.8402 8.81152 29.4409 8.6665 28.9038 8.6665C28.3631 8.6665 27.9316 8.82585 27.6094 9.14453C27.2907 9.46322 27.1099 9.85889 27.0669 10.3315H30.5044Z" fill="white"/>
<path d="M41.9375 9.00049L39.5098 15H38.4946L36.083 9.00049H37.1787L39.0371 13.7754L40.8794 9.00049H41.9375ZM48.0874 15H43.7583V14.1836H45.4233V8.82324H43.7583V8.09277C43.9839 8.09277 44.2256 8.07487 44.4834 8.03906C44.7412 7.99967 44.9364 7.94417 45.0688 7.87256C45.2336 7.78304 45.3625 7.67025 45.4556 7.53418C45.5522 7.39453 45.6077 7.20833 45.6221 6.97559H46.4546V14.1836H48.0874V15ZM55.6553 12.4058C55.6553 13.2186 55.3867 13.8828 54.8496 14.3984C54.3161 14.9105 53.6608 15.1665 52.8838 15.1665C52.4899 15.1665 52.1318 15.1056 51.8096 14.9839C51.4873 14.8621 51.2026 14.6813 50.9556 14.4414C50.6476 14.1442 50.4095 13.7503 50.2412 13.2598C50.0765 12.7692 49.9941 12.1784 49.9941 11.4873C49.9941 10.7783 50.0693 10.1499 50.2197 9.60205C50.3737 9.0542 50.6172 8.56722 50.9502 8.14111C51.2653 7.73649 51.6717 7.42139 52.1694 7.1958C52.6672 6.96663 53.2472 6.85205 53.9097 6.85205C54.1209 6.85205 54.2982 6.861 54.4414 6.87891C54.5846 6.89681 54.7297 6.92904 54.8765 6.97559V8.00146H54.8228C54.7225 7.94775 54.5703 7.89762 54.3662 7.85107C54.1657 7.80094 53.9598 7.77588 53.7485 7.77588C52.9787 7.77588 52.3646 8.01758 51.9062 8.50098C51.4479 8.98079 51.1812 9.6307 51.106 10.4507C51.4067 10.2681 51.7021 10.1302 51.9922 10.0371C52.2858 9.94043 52.6242 9.89209 53.0073 9.89209C53.3475 9.89209 53.6465 9.92432 53.9043 9.98877C54.1657 10.0496 54.4325 10.175 54.7046 10.3647C55.0197 10.5832 55.256 10.8589 55.4136 11.1919C55.5747 11.5249 55.6553 11.9295 55.6553 12.4058ZM54.5649 12.4487C54.5649 12.1157 54.5148 11.84 54.4146 11.6216C54.3179 11.4032 54.1567 11.2134 53.9312 11.0522C53.7664 10.9377 53.5838 10.8625 53.3833 10.8267C53.1828 10.7909 52.9733 10.7729 52.7549 10.7729C52.4505 10.7729 52.1676 10.8088 51.9062 10.8804C51.6449 10.952 51.3763 11.063 51.1006 11.2134C51.0934 11.2922 51.0881 11.3691 51.0845 11.4443C51.0809 11.516 51.0791 11.6073 51.0791 11.7183C51.0791 12.284 51.1364 12.7316 51.251 13.061C51.3691 13.3869 51.5303 13.6447 51.7344 13.8345C51.8991 13.992 52.0763 14.1084 52.2661 14.1836C52.4595 14.2552 52.6689 14.291 52.8945 14.291C53.4137 14.291 53.8219 14.1335 54.1191 13.8184C54.4163 13.4997 54.5649 13.0431 54.5649 12.4487ZM58.894 15H57.6104V13.4692H58.894V15ZM66.0806 15H61.7515V14.1836H63.4165V8.82324H61.7515V8.09277C61.9771 8.09277 62.2188 8.07487 62.4766 8.03906C62.7344 7.99967 62.9295 7.94417 63.062 7.87256C63.2267 7.78304 63.3556 7.67025 63.4487 7.53418C63.5454 7.39453 63.6009 7.20833 63.6152 6.97559H64.4478V14.1836H66.0806V15ZM73.5518 8.2002L69.9316 15H68.7822L72.6333 7.94238H68.0786V7.00244H73.5518V8.2002ZM76.8872 15H75.6035V13.4692H76.8872V15ZM84.5195 10.9985C84.5195 12.4344 84.2939 13.4889 83.8428 14.1621C83.3952 14.8317 82.6987 15.1665 81.7534 15.1665C80.7938 15.1665 80.092 14.8263 79.6479 14.146C79.2075 13.4657 78.9873 12.4201 78.9873 11.0093C78.9873 9.58773 79.2111 8.53857 79.6587 7.86182C80.1063 7.18148 80.8045 6.84131 81.7534 6.84131C82.7131 6.84131 83.4131 7.18685 83.8535 7.87793C84.2975 8.56543 84.5195 9.60563 84.5195 10.9985ZM83.1069 13.437C83.2323 13.147 83.3164 12.8068 83.3594 12.4165C83.4059 12.0226 83.4292 11.55 83.4292 10.9985C83.4292 10.4543 83.4059 9.98161 83.3594 9.58057C83.3164 9.17952 83.2305 8.83936 83.1016 8.56006C82.9762 8.28434 82.8044 8.07666 82.5859 7.93701C82.3711 7.79736 82.0936 7.72754 81.7534 7.72754C81.4168 7.72754 81.1375 7.79736 80.9155 7.93701C80.6971 8.07666 80.5234 8.28792 80.3945 8.5708C80.2728 8.83577 80.1886 9.18132 80.1421 9.60742C80.0991 10.0335 80.0776 10.5008 80.0776 11.0093C80.0776 11.5679 80.0973 12.0352 80.1367 12.4111C80.1761 12.7871 80.2603 13.1237 80.3892 13.4209C80.5073 13.7002 80.6738 13.9132 80.8887 14.0601C81.1071 14.2069 81.3953 14.2803 81.7534 14.2803C82.09 14.2803 82.3693 14.2104 82.5913 14.0708C82.8133 13.9312 82.9852 13.7199 83.1069 13.437Z" fill="#010101" fill-opacity="0.3"/>
<path d="M41.9375 8.00049L39.5098 14H38.4946L36.083 8.00049H37.1787L39.0371 12.7754L40.8794 8.00049H41.9375ZM48.0874 14H43.7583V13.1836H45.4233V7.82324H43.7583V7.09277C43.9839 7.09277 44.2256 7.07487 44.4834 7.03906C44.7412 6.99967 44.9364 6.94417 45.0688 6.87256C45.2336 6.78304 45.3625 6.67025 45.4556 6.53418C45.5522 6.39453 45.6077 6.20833 45.6221 5.97559H46.4546V13.1836H48.0874V14ZM55.6553 11.4058C55.6553 12.2186 55.3867 12.8828 54.8496 13.3984C54.3161 13.9105 53.6608 14.1665 52.8838 14.1665C52.4899 14.1665 52.1318 14.1056 51.8096 13.9839C51.4873 13.8621 51.2026 13.6813 50.9556 13.4414C50.6476 13.1442 50.4095 12.7503 50.2412 12.2598C50.0765 11.7692 49.9941 11.1784 49.9941 10.4873C49.9941 9.77832 50.0693 9.1499 50.2197 8.60205C50.3737 8.0542 50.6172 7.56722 50.9502 7.14111C51.2653 6.73649 51.6717 6.42139 52.1694 6.1958C52.6672 5.96663 53.2472 5.85205 53.9097 5.85205C54.1209 5.85205 54.2982 5.861 54.4414 5.87891C54.5846 5.89681 54.7297 5.92904 54.8765 5.97559V7.00146H54.8228C54.7225 6.94775 54.5703 6.89762 54.3662 6.85107C54.1657 6.80094 53.9598 6.77588 53.7485 6.77588C52.9787 6.77588 52.3646 7.01758 51.9062 7.50098C51.4479 7.98079 51.1812 8.6307 51.106 9.45068C51.4067 9.26807 51.7021 9.13021 51.9922 9.03711C52.2858 8.94043 52.6242 8.89209 53.0073 8.89209C53.3475 8.89209 53.6465 8.92432 53.9043 8.98877C54.1657 9.04964 54.4325 9.17497 54.7046 9.36475C55.0197 9.58317 55.256 9.85889 55.4136 10.1919C55.5747 10.5249 55.6553 10.9295 55.6553 11.4058ZM54.5649 11.4487C54.5649 11.1157 54.5148 10.84 54.4146 10.6216C54.3179 10.4032 54.1567 10.2134 53.9312 10.0522C53.7664 9.93766 53.5838 9.86247 53.3833 9.82666C53.1828 9.79085 52.9733 9.77295 52.7549 9.77295C52.4505 9.77295 52.1676 9.80876 51.9062 9.88037C51.6449 9.95199 51.3763 10.063 51.1006 10.2134C51.0934 10.2922 51.0881 10.3691 51.0845 10.4443C51.0809 10.516 51.0791 10.6073 51.0791 10.7183C51.0791 11.284 51.1364 11.7316 51.251 12.061C51.3691 12.3869 51.5303 12.6447 51.7344 12.8345C51.8991 12.992 52.0763 13.1084 52.2661 13.1836C52.4595 13.2552 52.6689 13.291 52.8945 13.291C53.4137 13.291 53.8219 13.1335 54.1191 12.8184C54.4163 12.4997 54.5649 12.0431 54.5649 11.4487ZM58.894 14H57.6104V12.4692H58.894V14ZM66.0806 14H61.7515V13.1836H63.4165V7.82324H61.7515V7.09277C61.9771 7.09277 62.2188 7.07487 62.4766 7.03906C62.7344 6.99967 62.9295 6.94417 63.062 6.87256C63.2267 6.78304 63.3556 6.67025 63.4487 6.53418C63.5454 6.39453 63.6009 6.20833 63.6152 5.97559H64.4478V13.1836H66.0806V14ZM73.5518 7.2002L69.9316 14H68.7822L72.6333 6.94238H68.0786V6.00244H73.5518V7.2002ZM76.8872 14H75.6035V12.4692H76.8872V14ZM84.5195 9.99854C84.5195 11.4344 84.2939 12.4889 83.8428 13.1621C83.3952 13.8317 82.6987 14.1665 81.7534 14.1665C80.7938 14.1665 80.092 13.8263 79.6479 13.146C79.2075 12.4657 78.9873 11.4201 78.9873 10.0093C78.9873 8.58773 79.2111 7.53857 79.6587 6.86182C80.1063 6.18148 80.8045 5.84131 81.7534 5.84131C82.7131 5.84131 83.4131 6.18685 83.8535 6.87793C84.2975 7.56543 84.5195 8.60563 84.5195 9.99854ZM83.1069 12.437C83.2323 12.147 83.3164 11.8068 83.3594 11.4165C83.4059 11.0226 83.4292 10.55 83.4292 9.99854C83.4292 9.45426 83.4059 8.98161 83.3594 8.58057C83.3164 8.17952 83.2305 7.83936 83.1016 7.56006C82.9762 7.28434 82.8044 7.07666 82.5859 6.93701C82.3711 6.79736 82.0936 6.72754 81.7534 6.72754C81.4168 6.72754 81.1375 6.79736 80.9155 6.93701C80.6971 7.07666 80.5234 7.28792 80.3945 7.5708C80.2728 7.83577 80.1886 8.18132 80.1421 8.60742C80.0991 9.03353 80.0776 9.50081 80.0776 10.0093C80.0776 10.5679 80.0973 11.0352 80.1367 11.4111C80.1761 11.7871 80.2603 12.1237 80.3892 12.4209C80.5073 12.7002 80.6738 12.9132 80.8887 13.0601C81.1071 13.2069 81.3953 13.2803 81.7534 13.2803C82.09 13.2803 82.3693 13.2104 82.5913 13.0708C82.8133 12.9312 82.9852 12.7199 83.1069 12.437Z" fill="white"/>
</g>
<defs>
<linearGradient id="paint0_linear_205_9" x1="0" y1="0" x2="0" y2="20" gradientUnits="userSpaceOnUse">
<stop stop-color="#BBBBBB" stop-opacity="0.1"/>
<stop offset="1" stop-opacity="0.1"/>
</linearGradient>
<clipPath id="clip0_205_9">
<rect width="88" height="20" fill="white"/>
</clipPath>
</defs>
</svg>
